<svg xmlns="http://www.w3.org/2000/svg" xmlns:xlink="http://www.w3.org/1999/xlink" width="1366" height="768" viewBox="0 0 1366 768">
  <defs>
    <clipPath id="clip-path">
      <rect id="Rectangle_299316" data-name="Rectangle 299316" width="1366" height="768" transform="translate(-19004 -16973)" fill="#f8f7f4" opacity="0"/>
    </clipPath>
  </defs>
  <g id="Mask_Group_157062" data-name="Mask Group 157062" transform="translate(19004 16973)" clip-path="url(#clip-path)">
    <g id="Group_309278" data-name="Group 309278" transform="translate(-395.953 -415.561)">
      <rect id="Rectangle_299315" data-name="Rectangle 299315" width="965.879" height="1366" transform="translate(-18608.047 -15690.561) rotate(-90)" fill="#f8f7f4" opacity="0"/>
      <path id="Path_89954" data-name="Path 89954" d="M815.409,0H595.315L95.188,500.151A324.976,324.976,0,0,0,73.593,935.9l89.565-89.565c106.739-106.739,279.82-106.739,386.56,0a272.3,272.3,0,0,1,49.968,68.514L815.409,699.125Z" transform="translate(-18608.047 -15841.03) rotate(-90)" fill="#f9ffff"/>
      <path id="Path_89955" data-name="Path 89955" d="M245.658,44.888a318.562,318.562,0,0,1-21.593-23.837L0,245.114V451.152H567.082L700.188,318.046A273.543,273.543,0,0,0,750.156,0L705.268,44.888c-126.917,126.939-332.695,126.939-459.61,0" transform="translate(-17693.199 -15690.561) rotate(-90)" fill="#efede6"/>
      <path id="Path_89956" data-name="Path 89956" d="M89.564,80.055,0,169.62a318.827,318.827,0,0,0,21.593,23.837C148.509,320.4,354.286,320.4,481.2,193.456l44.889-44.888a272.245,272.245,0,0,0-49.968-68.514c-106.739-106.739-279.82-106.739-386.56,0" transform="translate(-17841.768 -15914.625) rotate(-90)" fill="#f8f7f4"/>
    </g>
  </g>
</svg>
